D:\school\WTK\thesis\model\3dpredictsim\Results\Batchsim_tmt_linear_v2\Pog_s1_tmt_aCst_d05_k1000_ig24_pas_GRF.mot
nRows=22
nColumns=19

name D:\school\WTK\thesis\model\3dpredictsim\Results\Batchsim_tmt_linear_v2\Pog_s1_tmt_aCst_d05_k1000_ig24_pas_GRF.mot
datacolumns 19
datarows 22
range 0.5377986939 0.7636741453
endheader
time 	ground_force_vx	ground_force_vy	ground_force_vz	ground_force_px	ground_force_py	ground_force_pz	1_ground_force_vx	1_ground_force_vy	1_ground_force_vz	1_ground_force_px	1_ground_force_py	1_ground_force_pz	ground_torque_x	ground_torque_y	ground_torque_z	1_ground_torque_x	1_ground_torque_y	1_ground_torque_z
        0.5377986939	      126.2915558003	      525.5680363969	       -4.5419436606	        0.3258295027	        0.0000000000	        0.0489792366	      -59.7169431043	       41.6690736915	      -10.4791365008	        0.8345525131	        0.0000000000	       -0.0470268674	        0.0000000000	        0.0000000000	        0.0000000000	        0.0000000000	        0.0000000000	        0.0000000000	
        0.5485546677	      100.2198557432	      437.1920647485	        0.5540727332	        0.3359696401	        0.0000000000	        0.0476651480	     -110.6824628292	       95.3460854586	      -26.2821311653	        0.8450483782	        0.0000000000	       -0.0451436543	        0.0000000000	        0.0000000000	        0.0000000000	        0.0000000000	        0.0000000000	        0.0000000000	
        0.5593106416	       65.6722372009	      334.8469924734	        6.4576440334	        0.3522967912	        0.0000000000	        0.0451786380	     -113.4264378952	      206.2115263049	      -49.6527962308	        0.8519057233	        0.0000000000	       -0.0441505968	        0.0000000000	        0.0000000000	        0.0000000000	        0.0000000000	        0.0000000000	        0.0000000000	
        0.5700666155	       30.4702683397	      235.5062644068	        5.7463241045	        0.3778893715	        0.0000000000	        0.0407323317	      -61.2359337552	      376.4836793483	       -7.9085012904	        0.8568957771	        0.0000000000	       -0.0433673622	        0.0000000000	        0.0000000000	        0.0000000000	        0.0000000000	        0.0000000000	        0.0000000000	
        0.5808225894	        7.1299164629	      161.0306343095	        8.8847031553	        0.4086665571	        0.0000000000	        0.0334382395	      -72.6822487542	      588.5125954640	        6.7249395358	        0.8654294365	        0.0000000000	       -0.0455491241	        0.0000000000	        0.0000000000	        0.0000000000	        0.0000000000	        0.0000000000	        0.0000000000	
        0.5915785633	       -1.3959092034	      134.3521993364	       12.5048026825	        0.4126349349	        0.0000000000	        0.0323705682	     -111.6830929109	      794.8185825593	       14.4433211304	        0.8740019755	        0.0000000000	       -0.0481305892	        0.0000000000	        0.0000000000	        0.0000000000	        0.0000000000	        0.0000000000	        0.0000000000	
        0.6023345371	       -2.0891722591	      101.2417427535	       14.2240955347	        0.4132396887	        0.0000000000	        0.0325827044	     -128.0350411060	      898.8023063451	       17.9133125202	        0.8797917455	        0.0000000000	       -0.0497235501	        0.0000000000	        0.0000000000	        0.0000000000	        0.0000000000	        0.0000000000	        0.0000000000	
        0.6130905110	       -4.9549047079	       64.8483581564	       13.2630493297	        0.4137178919	        0.0000000000	        0.0327080492	     -124.9820301110	      905.1646802236	       18.2278050457	        0.8840179354	        0.0000000000	       -0.0507627625	        0.0000000000	        0.0000000000	        0.0000000000	        0.0000000000	        0.0000000000	        0.0000000000	
        0.6238464849	       -9.0134853444	       26.8255370402	        6.6490228546	        0.4133729514	        0.0000000000	        0.0323691166	     -114.7861863622	      868.8634078126	       17.7118260343	        0.8876700945	        0.0000000000	       -0.0515132698	        0.0000000000	        0.0000000000	        0.0000000000	        0.0000000000	        0.0000000000	        0.0000000000	
        0.6346024588	        0.1602474206	       -0.1588408837	       -0.0131724123	        0.0000000000	        0.0000000000	        0.0000000000	     -102.4052807717	      830.8426358621	       16.1301746341	        0.8915271766	        0.0000000000	       -0.0521506168	        0.0000000000	        0.0000000000	        0.0000000000	        0.0000000000	        0.0000000000	        0.0000000000	
        0.6453584326	        0.0006142593	       -0.0005008551	        0.0000034900	        0.0000000000	        0.0000000000	        0.0000000000	      -93.4691517056	      806.1528132052	       17.1982593727	        0.8966713052	        0.0000000000	       -0.0528116825	        0.0000000000	        0.0000000000	        0.0000000000	        0.0000000000	        0.0000000000	        0.0000000000	
        0.6561144065	        0.0002607725	       -0.0001849839	        0.0000065189	        0.0000000000	        0.0000000000	        0.0000000000	      -86.1148967056	      782.6290151343	       17.1524904651	        0.9028065291	        0.0000000000	       -0.0530291562	        0.0000000000	        0.0000000000	        0.0000000000	        0.0000000000	        0.0000000000	        0.0000000000	
        0.6668703804	        0.0018560598	       -0.0011805627	        0.0000620161	        0.0000000000	        0.0000000000	        0.0000000000	      -77.6974538497	      747.5314701983	       16.9045192951	        0.9087427786	        0.0000000000	       -0.0531393955	        0.0000000000	        0.0000000000	        0.0000000000	        0.0000000000	        0.0000000000	        0.0000000000	
        0.6776263543	        0.0041065608	       -0.0023949868	        0.0001542924	        0.0000000000	        0.0000000000	        0.0000000000	      -69.5612676143	      711.2825093796	       16.5926838757	        0.9145861634	        0.0000000000	       -0.0531274064	        0.0000000000	        0.0000000000	        0.0000000000	        0.0000000000	        0.0000000000	        0.0000000000	
        0.6883823282	       -0.0623420100	        0.0338531380	       -0.0025049223	        0.0000000000	        0.0000000000	        0.0000000000	      -61.8024024063	      680.4722734373	       16.5079629162	        0.9203155600	        0.0000000000	       -0.0530756460	        0.0000000000	        0.0000000000	        0.0000000000	        0.0000000000	        0.0000000000	        0.0000000000	
        0.6991383020	       -0.0439630295	        0.0224703283	       -0.0018575186	        0.0000000000	        0.0000000000	        0.0000000000	      -54.5136324312	      655.7737642786	       16.8926545834	        0.9257567765	        0.0000000000	       -0.0530186548	        0.0000000000	        0.0000000000	        0.0000000000	        0.0000000000	        0.0000000000	        0.0000000000	
        0.7098942759	       -0.0314515827	        0.0152641409	       -0.0013752436	        0.0000000000	        0.0000000000	        0.0000000000	      -47.9395679398	      636.6467987379	       17.2963208204	        0.9308928251	        0.0000000000	       -0.0529488251	        0.0000000000	        0.0000000000	        0.0000000000	        0.0000000000	        0.0000000000	        0.0000000000	
        0.7206502498	       -0.0279826257	        0.0129790209	       -0.0012529096	        0.0000000000	        0.0000000000	        0.0000000000	      -41.9963557460	      621.9384741325	       17.5787233919	        0.9357100810	        0.0000000000	       -0.0528615594	        0.0000000000	        0.0000000000	        0.0000000000	        0.0000000000	        0.0000000000	        0.0000000000	
        0.7314062237	       -0.0318690953	        0.0142024549	       -0.0014513567	        0.0000000000	        0.0000000000	        0.0000000000	      -37.6582048996	      611.5448158672	       18.1416889552	        0.9402109794	        0.0000000000	       -0.0527453799	        0.0000000000	        0.0000000000	        0.0000000000	        0.0000000000	        0.0000000000	        0.0000000000	
        0.7421621975	       -0.0448932468	        0.0193210862	       -0.0020817807	        0.0000000000	        0.0000000000	        0.0000000000	      -33.9863294354	      604.3227554413	       19.0160710917	        0.9443957669	        0.0000000000	       -0.0525967373	        0.0000000000	        0.0000000000	        0.0000000000	        0.0000000000	        0.0000000000	        0.0000000000	
        0.7529181714	       -0.0737389134	        0.0307903666	       -0.0034870747	        0.0000000000	        0.0000000000	        0.0000000000	      -30.4630246117	      598.3679361687	       19.8878403538	        0.9482888544	        0.0000000000	       -0.0524309551	        0.0000000000	        0.0000000000	        0.0000000000	        0.0000000000	        0.0000000000	        0.0000000000	
        0.7636741453	       -0.1321950215	        0.0537729870	       -0.0063594995	        0.0000000000	        0.0000000000	        0.0000000000	      -27.0864562488	      592.7868482763	       20.3907605117	        0.9518876059	        0.0000000000	       -0.0522663257	        0.0000000000	        0.0000000000	        0.0000000000	        0.0000000000	        0.0000000000	        0.0000000000	
